<?xml version="1.0" standalone="no"?>
<!DOCTYPE svg PUBLIC "-//W3C//DTD SVG 1.1//EN" "http://www.w3.org/Graphics/SVG/1.1/DTD/svg11.dtd" >
<svg xmlns="http://www.w3.org/2000/svg" xmlns:xlink="http://www.w3.org/1999/xlink" version="1.1">
<metadata></metadata>
<defs>
<font id="a3_arial_rusnormal" horiz-adv-x="1139" >
<font-face units-per-em="2048" ascent="1638" descent="-410" />
<missing-glyph horiz-adv-x="569" />
<glyph horiz-adv-x="0" />
<glyph unicode="&#xd;" horiz-adv-x="569" />
<glyph unicode=" "  horiz-adv-x="569" />
<glyph unicode="&#x09;" horiz-adv-x="569" />
<glyph unicode="&#xa0;" horiz-adv-x="569" />
<glyph unicode="!" horiz-adv-x="571" d="M173 1141v325h223v-325l-52 -777h-116zM181 0v205h207v-205h-207z" />
<glyph unicode="&#x22;" horiz-adv-x="726" d="M95 1226v240h205v-240l-45 -279h-110zM427 1226v240h205v-240l-48 -279h-108z" />
<glyph unicode="#" d="M25 401v149h199l74 363h-273v149h303l87 429h150l-87 -429h315l87 429h151l-87 -429h173v-149h-203l-75 -363h278v-149h-308l-87 -426h-150l86 426h-314l-87 -426h-150l87 426h-169zM374 550h314l75 363h-315z" />
<glyph unicode="$" d="M77 407l181 34q43 -299 256 -320v573q-406 87 -406 412q0 182 114 290q107 103 292 119v86h106v-86q344 -32 391 -361l-186 -28q-28 205 -205 237v-519q427 -87 427 -427q0 -188 -120 -313.5t-307 -132.5v-182h-106v180q-408 42 -437 438zM288 1120q0 -185 226 -253v498 q-99 -13 -161 -79q-65 -68 -65 -166zM620 121q109 14 175.5 93.5t66.5 189.5q0 114 -67 177q-52 50 -175 88v-548z" />
<glyph unicode="%" horiz-adv-x="1821" d="M123 1114q0 157 73 260q83 117 234 117q160 0 245 -118q75 -104 75 -270q0 -162 -76 -267q-85 -120 -241 -120q-159 0 -241 124q-69 106 -69 274zM280 1094q0 -254 156 -254q157 0 157 272q0 255 -157 255q-156 0 -156 -273zM437 -54l802 1545h146l-799 -1545h-149z M1071 344q0 156 74 260q83 117 233 117q161 0 246 -117q75 -103 75 -271q0 -161 -76 -267q-86 -120 -241 -120q-159 0 -241 124q-70 106 -70 274zM1228 324q0 -254 156 -254q158 0 158 272q0 255 -157 255t-157 -273z" />
<glyph unicode="&#x26;" horiz-adv-x="1367" d="M88 404q0 271 349 438q-165 188 -165 322q0 143 112 238q106 89 252 89q141 0 239 -86q102 -89 102 -228q0 -208 -277 -356l263 -335q45 88 70 204l187 -40q-48 -194 -130 -316q101 -134 229 -225l-121 -143q-109 70 -225 207q-175 -198 -421 -198q-191 0 -324 118 q-140 123 -140 311zM282 415q0 -111 81 -196t191 -85q85 0 174 54q85 52 132 127l-330 409q-248 -148 -248 -309zM457 1181q0 -70 70 -151l80 -93q186 103 186 236q0 73 -46.5 121.5t-119.5 48.5q-71 0 -120.5 -46t-49.5 -116z" />
<glyph unicode="'" horiz-adv-x="388" d="M93 1221v245h205v-245l-48 -274h-111z" />
<glyph unicode="(" horiz-adv-x="683" d="M124 531q0 487 355 960h129q-299 -480 -299 -958q0 -484 299 -964h-129q-355 466 -355 962z" />
<glyph unicode=")" horiz-adv-x="683" d="M74 -431q299 483 299 964q0 477 -299 958h129q355 -473 355 -960q0 -251 -98 -509q-93 -248 -257 -453h-129z" />
<glyph unicode="*" horiz-adv-x="796" d="M68 1197l46 142q170 -60 231 -97q-20 181 -20 249h145q-2 -98 -23 -248q103 52 236 96l46 -142q-127 -42 -249 -56q47 -39 172 -189l-120 -85q-59 79 -137 215q-75 -144 -130 -215l-118 85q131 159 166 189q-130 25 -245 56z" />
<glyph unicode="+" horiz-adv-x="1196" d="M114 639v168h399v399h170v-399h399v-168h-399v-402h-170v402h-399z" />
<glyph unicode="," horiz-adv-x="571" d="M166 -213q113 47 114 213h-102v205h205v-205q0 -217 -167 -290z" />
<glyph unicode="-" horiz-adv-x="682" d="M65 440v181h553v-181h-553z" />
<glyph unicode="." horiz-adv-x="571" d="M182 0v205h205v-205h-205z" />
<glyph unicode="/" horiz-adv-x="569" d="M0 -25l425 1516h144l-424 -1516h-145z" />
<glyph unicode="0" d="M89 723q0 749 478 749t478 -749q0 -748 -478 -748t-478 748zM274 723q0 -600 293 -600t293 600q0 245 -39 375q-68 225 -256 225q-291 0 -291 -600z" />
<glyph unicode="1" d="M227 930v174q316 151 424 368h116v-1472h-180v1147q-136 -132 -360 -217z" />
<glyph unicode="2" d="M64 0v29q0 206 375 513q185 151 257 229q150 164 150 298q0 113 -81 185q-77 69 -192 69q-136 0 -213 -79t-77 -215l-185 19q16 204 144 316q124 108 331 108q194 0 321 -105q137 -112 137 -302q0 -172 -149 -346q-71 -84 -284 -264q-248 -210 -284 -282h719v-173h-969z " />
<glyph unicode="3" d="M90 387l180 24q57 -288 287 -288q129 0 215.5 88.5t86.5 217.5q0 125 -81 205t-206 80q-51 0 -127 -20l20 158q17 -2 29 -2q123 0 206 60q93 67 93 185q0 102 -69 167q-68 62 -171 62q-224 0 -265 -264l-180 32q29 176 146.5 278t294.5 102q176 0 298 -101 q131 -108 131 -280q0 -205 -202 -297q131 -27 204 -128q70 -96 70 -233q0 -202 -148 -333q-141 -126 -346 -126q-189 0 -319 113t-147 300z" />
<glyph unicode="4" d="M30 351v165l669 950h147v-950h198v-165h-198v-351h-180v351h-636zM207 516h459v661z" />
<glyph unicode="5" d="M89 384l189 16q17 -123 87 -197q75 -80 195 -80q143 0 230 110q80 101 80 248q0 148 -82 238q-85 94 -231 94q-177 0 -267 -142l-169 22l142 753h729v-172h-585l-79 -394q132 92 277 92q200 0 330 -138q126 -136 126 -337q0 -224 -137 -371q-141 -151 -364 -151 q-195 0 -322 107q-131 110 -149 302z" />
<glyph unicode="6" d="M85 686q0 327 98 524q131 262 424 262q175 0 287.5 -96.5t132.5 -268.5l-179 -14q-51 231 -246 231q-189 0 -276 -203q-62 -146 -62 -365q127 195 356 195q194 0 317 -142q116 -135 116 -333q0 -211 -121 -352q-127 -149 -334 -149q-513 0 -513 711zM292 475 q0 -141 78 -242q85 -110 221 -110q131 0 209 108q69 97 69 233q0 139 -71 229q-78 99 -213 99q-132 0 -214 -94q-79 -89 -79 -223z" />
<glyph unicode="7" d="M101 1274v173h949v-140q-225 -233 -384 -609q-156 -369 -175 -698h-185q5 314 155 677q144 350 358 597h-718z" />
<glyph unicode="8" d="M87 424q0 140 71 238q75 102 208 133q-220 80 -220 299q0 173 126 279q119 99 295 99q178 0 298 -101q128 -107 128 -282q0 -212 -216 -294q129 -39 202.5 -138t73.5 -234q0 -203 -141 -328q-135 -120 -341 -120q-207 0 -343 120q-141 124 -141 329zM272 423 q0 -130 85 -215t215 -85q128 0 212.5 83t84.5 211q0 130 -86.5 215t-216.5 85q-127 0 -210.5 -83.5t-83.5 -210.5zM330 1100q0 -106 67.5 -171t173.5 -65q100 0 168.5 63.5t68.5 162.5q0 100 -69 167t-170 67q-97 0 -168 -64t-71 -160z" />
<glyph unicode="9" d="M89 977q0 213 123 351q128 144 338 144q278 0 404 -231q99 -179 99 -482q0 -784 -525 -784q-173 0 -282 96.5t-130 267.5l173 16q36 -232 243 -232q183 0 273 186q69 142 69 348q0 10 -1 33q-53 -87 -150 -140t-200 -53q-196 0 -319 144q-115 136 -115 336zM274 972 q0 -134 79 -223q82 -93 214 -93q138 0 215 98q71 91 71 232q0 136 -71 232q-78 105 -210 105q-135 0 -220 -111q-78 -101 -78 -240z" />
<glyph unicode=":" horiz-adv-x="571" d="M182 0v205h205v-205h-205zM182 857v205h205v-205h-205z" />
<glyph unicode=";" horiz-adv-x="571" d="M166 -213q113 47 114 213h-102v205h205v-205q0 -217 -167 -290zM178 857v205h205v-205h-205z" />
<glyph unicode="&#x3c;" horiz-adv-x="1196" d="M113 641v168l971 410v-179l-770 -316l770 -319v-179z" />
<glyph unicode="=" horiz-adv-x="1196" d="M114 417v168h968v-168h-968zM114 862v168h968v-168h-968z" />
<glyph unicode="&#x3e;" horiz-adv-x="1196" d="M113 226v179l769 319l-769 316v179l971 -410v-168z" />
<glyph unicode="?" d="M94 1068q23 202 147 312.5t328 110.5q191 0 325 -102q146 -113 146 -298q0 -115 -65 -211q-44 -63 -154.5 -161.5t-138.5 -155.5q-30 -61 -33 -202h-173q-1 37 -1 58q0 142 61 240q45 73 172 184q75 65 102 102q45 62 45 134q0 112 -85 188t-198 76q-247 0 -293 -297z M465 0v205h205v-205h-205z" />
<glyph unicode="@" horiz-adv-x="2079" d="M116 469q0 446 271 732q275 292 718 292q359 0 601 -208q255 -219 255 -572q0 -256 -170 -478q-183 -239 -432 -239q-187 0 -193 167q-145 -166 -307 -166q-167 0 -270 143q-92 128 -92 301q0 226 144 425q157 218 375 218q190 0 302 -184l34 155h179l-144 -671 q-30 -140 -30 -155q0 -66 70 -66q83 0 184 97q84 80 131 169q71 135 71 287q0 288 -219 466q-203 165 -498 165q-365 0 -601 -249q-231 -244 -231 -611q0 -238 100 -413q109 -189 319 -274q205 -83 447 -83q211 0 388 68q207 79 311 234h181q-108 -224 -376 -345 q-232 -105 -507 -105q-451 0 -720 221q-291 239 -291 679zM682 434q0 -110 51 -192q59 -97 163 -97q158 0 268 177q97 156 97 323q0 120 -55 199q-62 91 -177 91q-154 0 -258 -180q-89 -154 -89 -321z" />
<glyph unicode="A" horiz-adv-x="1367" d="M-1 0l563 1466h209l600 -1466h-221l-171 444h-613l-161 -444h-206zM422 602h497l-153 406q-73 193 -104 304q-29 -147 -79 -280z" />
<glyph unicode="B" horiz-adv-x="1367" d="M151 0v1466h550q205 0 334 -83q152 -98 152 -292q0 -209 -205 -311q127 -34 201.5 -129t74.5 -226q0 -425 -548 -425h-559zM345 173h365q347 0 347 250q0 151 -118 211q-86 43 -255 43h-339v-504zM345 850h317q157 0 228 33q106 50 106 186q0 145 -114 193 q-72 31 -244 31h-293v-443z" />
<glyph unicode="C" horiz-adv-x="1479" d="M105 744q0 332 178 534q187 213 514 213q215 0 368.5 -111t210.5 -316l-191 -45q-99 306 -381 306q-251 0 -381 -165q-118 -150 -118 -409q0 -264 102 -422q122 -188 371 -188q173 0 286 102q108 98 143 271l194 -49q-58 -230 -213 -359q-160 -131 -394 -131 q-338 0 -520 219q-169 204 -169 550z" />
<glyph unicode="D" horiz-adv-x="1479" d="M161 0v1466h505q175 0 270 -23q136 -33 235 -129q202 -196 202 -570q0 -220 -74 -395q-90 -213 -267 -287q-147 -62 -342 -62h-529zM355 173h313q170 0 260 39q115 49 180 183t65 350q0 165 -49 294q-63 167 -191 217q-98 37 -270 37h-308v-1120z" />
<glyph unicode="E" horiz-adv-x="1367" d="M162 0v1466h1060v-173h-866v-449h811v-172h-811v-499h900v-173h-1094z" />
<glyph unicode="F" horiz-adv-x="1254" d="M164 0v1466h989v-173h-795v-454h688v-173h-688v-666h-194z" />
<glyph unicode="G" horiz-adv-x="1593" d="M106 726q0 346 193 553q197 212 541 212q490 0 600 -435l-175 -48q-78 317 -424 317q-260 0 -402 -163q-133 -154 -133 -419q0 -271 132 -427q140 -166 406 -166q106 0 227 41q129 44 201 111v273h-431v173h621v-544q-283 -229 -607 -229q-342 0 -545.5 204.5 t-203.5 546.5z" />
<glyph unicode="H" horiz-adv-x="1479" d="M164 0v1466h194v-602h762v602h194v-1466h-194v691h-762v-691h-194z" />
<glyph unicode="I" horiz-adv-x="571" d="M188 0v1466h194v-1466h-194z" />
<glyph unicode="J" horiz-adv-x="1024" d="M59 416l175 24q6 -292 218 -292q133 0 183 92q36 67 36 216v1010h194v-999q0 -492 -412 -492q-394 0 -394 424v17z" />
<glyph unicode="K" horiz-adv-x="1367" d="M151 0v1466h194v-727l728 727h263l-615 -594l642 -872h-256l-522 742l-240 -234v-508h-194z" />
<glyph unicode="L" d="M154 0v1466h194v-1293h722v-173h-916z" />
<glyph unicode="M" horiz-adv-x="1706" d="M154 0v1466h292l417 -1255q20 65 78 235l351 1020h261v-1466h-187v1227l-426 -1227h-175l-424 1248v-1248h-187z" />
<glyph unicode="N" horiz-adv-x="1479" d="M162 0v1466h199l770 -1151v1151h186v-1466h-199l-770 1152v-1152h-186z" />
<glyph unicode="O" horiz-adv-x="1593" d="M96 714q0 340 178 552q191 226 524 226q324 0 517 -222q183 -210 183 -539q0 -327 -185 -536q-194 -220 -516 -220q-207 0 -375 102q-174 106 -252 293q-74 173 -74 344zM296 711q0 -243 126 -400q137 -170 374 -170q245 0 380 178q122 160 122 413q0 252 -121 413 q-134 180 -378 180q-258 0 -389 -184q-114 -161 -114 -430z" />
<glyph unicode="P" horiz-adv-x="1367" d="M158 0v1466h553q179 0 271 -24q141 -37 220 -146q75 -105 75 -254q0 -446 -549 -446h-376v-596h-194zM352 769h379q346 0 346 267q0 80 -40 147q-43 73 -116 93q-63 17 -194 17h-375v-524z" />
<glyph unicode="Q" horiz-adv-x="1593" d="M96 733q0 329 185 539q193 220 517 220q204 0 368 -98q168 -100 253 -282q79 -171 79 -378q0 -363 -221 -577q153 -102 249 -136l-57 -135q-159 56 -315 180q-163 -91 -360 -91q-319 0 -513 222q-185 212 -185 536zM296 733q0 -254 120 -414q135 -178 380 -178 q108 0 199 39q-92 61 -192 84l47 141q169 -46 277 -140q171 156 171 469q0 253 -120 413q-134 178 -379 178q-249 0 -383 -176q-120 -158 -120 -416z" />
<glyph unicode="R" horiz-adv-x="1479" d="M164 0v1466h650q165 0 250 -24q127 -35 201 -138q71 -101 71 -238q0 -177 -121 -282q-108 -94 -292 -117q146 -61 278 -268l255 -399h-244l-194 305q-124 194 -172 242q-105 104 -263 104h-225v-651h-194zM358 819h417q361 0 361 246q0 239 -314 239h-464v-485z" />
<glyph unicode="S" horiz-adv-x="1367" d="M92 471l183 16q16 -168 140 -257q113 -81 289 -81q145 0 243 52q125 65 125 197q0 142 -159 203q-74 27 -285 78q-158 38 -232 70q-126 54 -189 145q-59 83 -59 193q0 199 165 309q142 95 351 95q232 0 377 -101q164 -115 174 -337l-186 -14q-23 281 -355 281 q-134 0 -223 -43q-116 -57 -116 -177q0 -111 126 -171q53 -25 222 -63q205 -46 278 -74q158 -59 232 -161q66 -93 66 -216q0 -213 -170 -333q-150 -107 -372 -107q-266 0 -430 113q-190 130 -195 383z" />
<glyph unicode="T" horiz-adv-x="1254" d="M44 1293v173h1162v-173h-485v-1293h-194v1293h-483z" />
<glyph unicode="U" horiz-adv-x="1479" d="M163 620v846h194v-846q0 -158 22 -239q36 -129 140 -184q88 -47 204 -47q237 0 325 119q74 101 74 351v846h194v-846q0 -203 -38 -319q-53 -161 -195 -246q-134 -80 -343 -80q-318 0 -454 167q-123 150 -123 478z" />
<glyph unicode="V" horiz-adv-x="1367" d="M10 1466h210l381 -1065q51 -142 77 -240q33 116 79 240l396 1065h198l-574 -1466h-199z" />
<glyph unicode="W" horiz-adv-x="1933" d="M21 1466h199l223 -961q39 -169 62 -300l66 271l279 990h234l210 -742q78 -276 114 -519q23 114 73 319l230 942h195l-402 -1466h-187l-355 1289q-23 -99 -43 -172l-311 -1117h-198z" />
<glyph unicode="X" horiz-adv-x="1367" d="M9 0l567 764l-500 702h231l266 -376q91 -128 118 -180q45 73 116 167l295 389h211l-515 -691l555 -775h-240l-369 523q-27 38 -64 98q-46 -77 -70 -110l-368 -511h-233z" />
<glyph unicode="Y" horiz-adv-x="1367" d="M6 1466h236l289 -442q82 -125 149 -248q72 125 160 259l284 431h226l-585 -845v-621h-194v621z" />
<glyph unicode="Z" horiz-adv-x="1254" d="M37 0v180l751 939q80 100 152 174h-818v173h1050v-173l-823 -1017q-21 -26 -89 -103h936v-173h-1159z" />
<glyph unicode="[" horiz-adv-x="571" d="M136 -407v1873h397v-149h-217v-1575h217v-149h-397z" />
<glyph unicode="\" horiz-adv-x="569" d="M0 1491h145l424 -1516h-144z" />
<glyph unicode="]" horiz-adv-x="571" d="M36 -258h217v1575h-217v149h397v-1873h-397v149z" />
<glyph unicode="^" horiz-adv-x="961" d="M54 690l353 801h145l355 -801h-181l-247 597l-240 -597h-185z" />
<glyph unicode="_" d="M-12 -277h1163v-130h-1163v130z" />
<glyph unicode="`" horiz-adv-x="682" d="M89 1474h241l135 -280h-145z" />
<glyph unicode="a" d="M78 280q0 282 418 332q218 26 321 62q1 37 1 47q0 121 -70 172q-60 44 -186 44q-123 0 -183 -42q-64 -44 -94 -160l-176 24q58 327 472 327q335 0 394 -180q24 -75 24 -221v-240q0 -214 1 -227q9 -133 56 -218h-188q-29 56 -36 131q-181 -155 -391 -155q-154 0 -253 73 q-110 82 -110 231zM270 285q0 -84 67 -129q58 -39 147 -39q94 0 174 40q90 44 127 123q32 71 32 187v66q-97 -40 -294 -68q-117 -17 -168 -43q-85 -44 -85 -137z" />
<glyph unicode="b" d="M138 0v1466h180v-523q109 143 290 143q218 0 341 -165q110 -148 110 -374q0 -234 -111 -392q-126 -179 -350 -179q-184 0 -293 157v-133h-167zM303 539q0 -131 20 -201q29 -101 111 -164q64 -50 151 -50q149 0 227 136q63 111 63 272q0 165 -58 271q-73 135 -224 135 q-146 0 -225 -132q-65 -111 -65 -267z" />
<glyph unicode="c" horiz-adv-x="1024" d="M80 527q0 249 115 396q127 163 369 163q168 0 280 -85q116 -88 144 -251l-175 -27q-50 215 -241 215q-162 0 -241 -125q-66 -104 -66 -276q0 -413 296 -413q229 0 267 265l177 -23q-25 -174 -142 -281q-120 -109 -294 -109q-241 0 -370 158q-119 146 -119 393z" />
<glyph unicode="d" d="M74 529q0 233 105 384q121 173 344 173q187 0 293 -146v526h179v-1466h-167v134q-100 -158 -296 -158q-217 0 -344 173q-114 155 -114 380zM259 530q0 -162 62 -271q77 -135 227 -135q148 0 223 130q60 105 60 264q0 169 -60 280q-76 139 -231 139q-151 0 -224 -135 q-57 -107 -57 -272z" />
<glyph unicode="e" d="M79 522q0 246 123 398q133 166 373 166q234 0 364 -164q119 -151 119 -391q0 -14 -1 -46h-792q7 -155 85 -252q87 -109 236 -109q206 0 280 218l186 -23q-43 -167 -169 -257q-122 -86 -298 -86q-244 0 -379 153q-127 145 -127 393zM275 633h593q-9 135 -81 217 q-79 88 -210 88q-130 0 -214 -89q-81 -85 -88 -216z" />
<glyph unicode="f" horiz-adv-x="571" d="M16 922v140h159v113q0 212 122 279q67 37 172 37q76 0 168 -18l-27 -157q-49 10 -109 10q-85 0 -118 -41q-29 -36 -29 -125v-98h207v-140h-207v-922h-179v922h-159z" />
<glyph unicode="g" d="M70 535q0 235 111 384q124 167 351 167q186 0 308 -152v128h166v-918q0 -195 -29 -292q-45 -147 -177 -220q-115 -63 -270 -63q-187 0 -298 76q-126 86 -126 254v13l175 -26q17 -168 244 -168q235 0 279 168q19 72 19 253q-117 -139 -291 -139q-218 0 -345 162 q-117 148 -117 373zM255 550q0 -167 61 -272q75 -129 230 -129t231 128q61 104 61 271q0 159 -67 264q-79 125 -228 125q-147 0 -224 -125q-64 -105 -64 -262z" />
<glyph unicode="h" d="M138 0v1466h180v-526q122 146 320 146q197 0 285 -110q80 -99 80 -303v-673h-180v673q0 258 -225 258q-280 0 -280 -350v-581h-180z" />
<glyph unicode="i" horiz-adv-x="455" d="M137 0v1062h180v-1062h-180zM137 1259v207h180v-207h-180z" />
<glyph unicode="j" horiz-adv-x="455" d="M-90 -412l34 153q52 -14 85 -14q78 0 100 77q9 33 9 142v1116h180v-1120q0 -180 -44 -261q-61 -112 -223 -112q-73 0 -141 19zM138 1257v209h180v-209h-180z" />
<glyph unicode="k" horiz-adv-x="1024" d="M136 0v1466h180v-836l426 432h233l-406 -394l447 -668h-222l-351 543l-127 -122v-421h-180z" />
<glyph unicode="l" horiz-adv-x="455" d="M135 0v1466h180v-1466h-180z" />
<glyph unicode="m" horiz-adv-x="1706" d="M134 0v1062h161v-149q113 173 324 173q232 0 298 -186q122 186 327 186q329 0 329 -357v-729h-179v669q0 124 -32 183q-43 78 -156 78q-261 0 -261 -313v-617h-180v690q0 240 -190 240q-261 0 -261 -379v-551h-180z" />
<glyph unicode="n" d="M139 0v1062h162v-151q117 175 338 175q111 0 200 -46q101 -52 135 -148q28 -83 28 -239v-653h-180v646q0 136 -43 203q-52 81 -180 81q-280 0 -280 -350v-580h-180z" />
<glyph unicode="o" d="M72 531q0 248 123 396q132 159 375 159q235 0 369 -155q128 -147 128 -385q0 -256 -118 -405q-131 -165 -379 -165q-243 0 -375 159q-123 148 -123 396zM257 531q0 -170 70 -278q83 -129 243 -129q162 0 244 131q68 109 68 282q0 167 -71 274q-83 126 -241 126 q-161 0 -243 -128q-70 -108 -70 -278z" />
<glyph unicode="p" d="M139 -407v1469h164v-138q110 162 306 162q216 0 340 -163q112 -147 112 -371q0 -238 -110 -396q-126 -180 -354 -180q-170 0 -278 134v-517h-180zM302 525q0 -164 59 -269q73 -132 224 -132q155 0 231 140q61 112 61 280q0 158 -61 267q-76 134 -222 134 q-147 0 -227 -144q-65 -117 -65 -276z" />
<glyph unicode="q" d="M76 541q0 229 108 378q121 167 342 167q196 0 308 -166v142h162v-1469h-180v520q-40 -62 -123 -101q-77 -36 -155 -36q-220 0 -348 178q-114 158 -114 387zM261 534q0 -163 63 -274q78 -136 229 -136q147 0 221 132q60 107 60 265q0 163 -64 280q-79 143 -229 143 t-223 -138q-57 -108 -57 -272z" />
<glyph unicode="r" horiz-adv-x="683" d="M133 0v1062h162v-161q95 185 230 185q93 0 185 -58l-62 -167q-66 39 -132 39q-203 0 -203 -344v-556h-180z" />
<glyph unicode="s" horiz-adv-x="1024" d="M63 317l178 28q31 -221 275 -221q95 0 161 36q83 45 83 133q0 75 -86 114q-25 11 -151 43q-162 41 -208 59q-124 46 -175 118q-47 65 -47 153q0 151 123 234q106 72 264 72q383 0 425 -298l-176 -24q-25 174 -232 174q-230 0 -230 -137q0 -72 94 -113q17 -7 156 -44 q176 -47 211 -60q130 -49 176 -120q41 -65 41 -152q0 -164 -137 -256q-119 -80 -291 -80q-394 0 -454 341z" />
<glyph unicode="t" horiz-adv-x="571" d="M33 922v140h132v263l179 108v-371h181v-140h-181v-621q0 -78 13 -105q21 -42 89 -42q32 0 79 7l26 -159q-73 -16 -135 -16q-201 0 -235 131q-16 58 -16 194v611h-132z" />
<glyph unicode="u" d="M135 404v658h180v-589q0 -127 6 -163q15 -91 75 -137q55 -42 138 -42q282 0 282 362v569h180v-1062h-161v156q-124 -180 -338 -180q-110 0 -198 47q-101 53 -134 149q-30 83 -30 232z" />
<glyph unicode="v" horiz-adv-x="1024" d="M26 1062h190l228 -636q40 -111 68 -214q20 72 67 202l236 648h185l-402 -1062h-168z" />
<glyph unicode="w" horiz-adv-x="1479" d="M10 1062h186l232 -841q9 42 55 219l169 622h185l212 -819l243 819h175l-332 -1062h-187l-169 636q-5 18 -41 181l-215 -817h-188z" />
<glyph unicode="x" horiz-adv-x="1024" d="M15 0l388 552l-359 510h225l163 -249q51 -77 74 -119q41 60 81 117l179 251h215l-367 -500l395 -562h-221l-276 419l-279 -419h-218z" />
<glyph unicode="y" horiz-adv-x="1024" d="M33 1062h194l221 -615q47 -131 77 -246q28 118 74 242l227 619h180l-404 -1080q-78 -210 -120 -272q-92 -141 -239 -141q-54 0 -116 22l-20 169q57 -16 104 -16q94 0 142 61q26 34 67 149l3 8q7 20 13 36z" />
<glyph unicode="z" horiz-adv-x="1024" d="M40 0v146l676 776q-106 -6 -203 -6h-433v146h868v-119l-575 -674l-111 -123q122 9 227 9h491v-155h-940z" />
<glyph unicode="{" horiz-adv-x="683" d="M58 449v163q141 4 184 134q23 69 23 253t9 244q23 153 110 206q69 42 197 42h56v-157h-31q-111 0 -145 -48q-27 -38 -27 -157q0 -222 -2 -250q-11 -161 -63 -236q-46 -66 -144 -113q131 -51 177 -185q32 -91 32 -265q0 -197 -1 -170q6 -125 46 -158q33 -26 127 -26h31 v-157h-56q-114 0 -172 28q-69 33 -113 126q-31 65 -31 338q0 185 -22 254q-43 130 -185 134z" />
<glyph unicode="|" horiz-adv-x="532" d="M188 -431v1922h157v-1922h-157z" />
<glyph unicode="}" horiz-adv-x="683" d="M47 -274h31q111 0 145 48q27 38 27 158q0 224 2 254q12 160 70 239q49 68 137 105q-133 60 -178 185q-31 86 -31 265q0 197 1 170q-6 125 -46 158q-33 26 -127 26h-31v157h56q114 0 171 -27q68 -33 114 -126q31 -65 31 -339q0 -184 23 -253q42 -130 184 -134v-163 q-142 -4 -184 -135q-23 -69 -23 -253t-9 -244q-23 -153 -109 -206q-70 -42 -198 -42h-56v157z" />
<glyph unicode="~" horiz-adv-x="1196" d="M87 557v205q106 120 278 120q110 0 314 -87q110 -47 173 -47q127 0 258 137v-212q-119 -114 -277 -114q-108 0 -244 61q-163 73 -241 73q-119 0 -261 -136z" />
<glyph unicode="&#xa4;" d="M78 354l139 136q-71 110 -71 237q0 124 71 234l-139 136l115 119l139 -139q106 72 237 72q133 0 237 -72l139 139l116 -119l-139 -136q71 -110 71 -235q0 -126 -71 -236l139 -136l-116 -119l-139 140q-107 -73 -237 -73t-237 73l-139 -140zM309 726q0 -108 75.5 -184 t183.5 -76t183.5 76t75.5 184t-75.5 183.5t-183.5 75.5t-183.5 -75.5t-75.5 -183.5z" />
<glyph unicode="&#xa6;" horiz-adv-x="533" d="M188 360h157v-791h-157v791zM188 701v790h157v-790h-157z" />
<glyph unicode="&#xa7;" d="M85 644q0 102 64 179q61 74 161 104q-129 121 -129 245q0 145 112 235q105 84 253 84q374 0 418 -347l-187 -19q-29 218 -215 218q-77 0 -137 -40q-68 -46 -68 -119q0 -61 60 -121t282 -195q176 -107 234 -161q116 -109 116 -245q0 -189 -227 -284q159 -121 159 -280 q0 -155 -125 -247q-112 -82 -272 -82q-183 0 -296 89q-118 94 -141 272l181 26q43 -235 255 -235q86 0 147 43q70 49 70 131q0 84 -154 198q-37 27 -222 141q-164 101 -228 164q-111 111 -111 246zM248 664q0 -83 84 -159q45 -40 154 -104q152 -90 246 -157q147 75 147 187 q0 82 -104 171q-50 42 -173 118q-146 90 -204 138q-150 -85 -150 -194z" />
<glyph unicode="&#xa9;" horiz-adv-x="1509" d="M0 736q0 204 104.5 383t282.5 275.5t368 96.5q314 0 534 -220.5t220 -534.5q0 -313 -220.5 -533.5t-533.5 -220.5q-315 0 -535 219.5t-220 534.5zM125 736q0 -261 184.5 -445t445.5 -184q262 0 445.5 183.5t183.5 445.5q0 170 -85.5 318t-233.5 230t-310 82 q-262 0 -446 -184t-184 -446zM360 734q0 194 104 308q108 118 300 118q123 0 213 -59q97 -62 128 -177l-119 -29q-61 153 -226 153q-129 0 -200 -96q-64 -86 -64 -220q0 -133 59 -216q66 -95 194 -95q90 0 159 53t89 140l123 -36q-29 -127 -131 -202q-98 -72 -231 -72 q-189 0 -296 122q-102 116 -102 308z" />
<glyph unicode="&#xab;" d="M138 528l319 456h148l-261 -456l259 -456h-146zM530 528l313 456h152l-264 -456l264 -456h-152z" />
<glyph unicode="&#xac;" horiz-adv-x="1196" d="M114 862v168h968v-606h-170v438h-798z" />
<glyph unicode="&#xad;" horiz-adv-x="682" d="M65 440v181h553v-181h-553z" />
<glyph unicode="&#xae;" horiz-adv-x="1509" d="M0 736q0 204 104.5 383t282.5 275.5t368 96.5q314 0 534 -220.5t220 -534.5q0 -313 -220.5 -533.5t-533.5 -220.5q-315 0 -535 219.5t-220 534.5zM125 736q0 -261 184.5 -445t445.5 -184q262 0 445.5 183.5t183.5 445.5q0 170 -85.5 318t-233.5 230t-310 82 q-262 0 -446 -184t-184 -446zM424 319v812h279q113 0 163 -10q87 -19 137 -79q47 -57 47 -131q0 -96 -67.5 -159t-164.5 -70q76 -22 189 -204l99 -159h-160l-72 128q-66 117 -93 148q-61 69 -149 69h-77v-345h-131zM555 776h159q197 0 197 124q0 121 -207 121h-149v-245z " />
<glyph unicode="&#xb0;" horiz-adv-x="819" d="M132 1214q0 115 81 196t196 81q116 0 197 -80.5t81 -196.5t-81 -197t-197 -81q-115 0 -196 81.5t-81 196.5zM241 1214q0 -70 49 -119.5t119 -49.5t119.5 49.5t49.5 119.5t-49.5 119.5t-119.5 49.5t-119 -49.5t-49 -119.5z" />
<glyph unicode="&#xb1;" horiz-adv-x="1196" d="M114 0v168h968v-168h-968zM114 663v167h399v399h170v-399h399v-167h-399v-403h-170v403h-399z" />
<glyph unicode="&#xb5;" horiz-adv-x="1159" d="M161 -407v1469h178v-450q0 -178 5 -221q17 -131 87 -195q62 -58 153 -58q87 0 155.5 53t86.5 137q16 80 16 281v453h177v-1062h-161v126q-89 -151 -269 -151q-154 0 -250 132v-514h-178z" />
<glyph unicode="&#xb6;" horiz-adv-x="1100" d="M-4 1044q0 209 134 320q125 102 339 102h633v-173h-144v-1700h-170v1700h-223v-1700h-165v1045q-180 8 -291 116q-113 112 -113 290z" />
<glyph unicode="&#xb7;" horiz-adv-x="574" d="M184 619v205h205v-205h-205z" />
<glyph unicode="&#xbb;" d="M144 72l264 456l-264 456h151l314 -456l-314 -456h-151zM534 984h148l319 -456l-319 -456h-147l260 456z" />
<glyph unicode="&#x2000;" horiz-adv-x="800" />
<glyph unicode="&#x2001;" horiz-adv-x="1601" />
<glyph unicode="&#x2002;" horiz-adv-x="800" />
<glyph unicode="&#x2003;" horiz-adv-x="1601" />
<glyph unicode="&#x2004;" horiz-adv-x="533" />
<glyph unicode="&#x2005;" horiz-adv-x="400" />
<glyph unicode="&#x2006;" horiz-adv-x="266" />
<glyph unicode="&#x2007;" horiz-adv-x="266" />
<glyph unicode="&#x2008;" horiz-adv-x="200" />
<glyph unicode="&#x2009;" horiz-adv-x="320" />
<glyph unicode="&#x200a;" horiz-adv-x="88" />
<glyph unicode="&#x2010;" horiz-adv-x="682" d="M65 440v181h553v-181h-553z" />
<glyph unicode="&#x2011;" horiz-adv-x="682" d="M65 440v181h553v-181h-553z" />
<glyph unicode="&#x2012;" horiz-adv-x="682" d="M65 440v181h553v-181h-553z" />
<glyph unicode="&#x2013;" d="M-12 458v145h1163v-145h-1163z" />
<glyph unicode="&#x2014;" horiz-adv-x="2048" d="M-12 458v145h2072v-145h-2072z" />
<glyph unicode="&#x2018;" horiz-adv-x="455" d="M131 1011v165q0 122 30 188q37 83 135 127l44 -70q-108 -44 -110 -201h94v-209h-193z" />
<glyph unicode="&#x2019;" horiz-adv-x="455" d="M112 1072q109 44 110 200h-94v209h193v-165q0 -123 -29 -188q-37 -83 -136 -127z" />
<glyph unicode="&#x201a;" horiz-adv-x="463" d="M116 -200q109 44 110 200h-94v209h193v-165q0 -123 -29 -188q-37 -83 -136 -127z" />
<glyph unicode="&#x201c;" horiz-adv-x="683" d="M83 1011v165q0 122 30 188q37 83 135 127l44 -70q-108 -44 -110 -201h94v-209h-193zM393 1011v165q0 122 30 188q37 83 135 127l44 -70q-108 -44 -110 -201h94v-209h-193z" />
<glyph unicode="&#x201d;" horiz-adv-x="683" d="M70 1072q109 44 110 200h-94v209h193v-165q0 -123 -29 -188q-37 -83 -136 -127zM380 1072q109 44 110 200h-94v209h193v-165q0 -123 -29 -188q-37 -83 -136 -127z" />
<glyph unicode="&#x201e;" horiz-adv-x="683" d="M71 -200q109 44 110 200h-94v209h193v-165q0 -123 -29 -188q-37 -83 -136 -127zM381 -200q109 44 110 200h-94v209h193v-165q0 -123 -29 -188q-37 -83 -136 -127z" />
<glyph unicode="&#x2022;" horiz-adv-x="717" d="M105 718q0 105 74 179t179 74q106 0 180 -73.5t74 -179.5q0 -105 -74.5 -179.5t-179.5 -74.5t-179 74.5t-74 179.5z" />
<glyph unicode="&#x2026;" horiz-adv-x="2048" d="M239 0v205h205v-205h-205zM922 0v205h205v-205h-205zM1604 0v205h206v-205h-206z" />
<glyph unicode="&#x202f;" horiz-adv-x="320" />
<glyph unicode="&#x2039;" horiz-adv-x="684" d="M93 527l315 457h149l-265 -457l265 -455h-149z" />
<glyph unicode="&#x203a;" horiz-adv-x="684" d="M127 72l265 458l-265 454h149l315 -454l-315 -458h-149z" />
<glyph unicode="&#x205f;" horiz-adv-x="400" />
<glyph unicode="&#x2122;" horiz-adv-x="2048" d="M225 1345v121h666v-121h-266v-694h-136v694h-264zM982 651v815h200l206 -651l199 651h196v-815h-124v684l-210 -684h-123l-219 694v-694h-125z" />
<glyph unicode="&#x25fc;" horiz-adv-x="1060" d="M0 0v1060h1060v-1060h-1060z" />
</font>
</defs>
</svg>
